<svg width="22" height="22" viewBox="0 0 22 22" fill="none" xmlns="http://www.w3.org/2000/svg">
<path d="M9.52 21.68C9.22667 21.68 8.98667 21.5867 8.8 21.4C8.61333 21.2133 8.52 20.9733 8.52 20.68V13.36H1.4C1.10667 13.36 0.853333 13.2667 0.64 13.08C0.453333 12.8933 0.36 12.6533 0.36 12.36V9.44C0.36 9.14667 0.453333 8.90667 0.64 8.72C0.853333 8.53333 1.10667 8.44 1.4 8.44H8.52V1.32C8.52 1.02667 8.61333 0.786666 8.8 0.6C8.98667 0.413332 9.22667 0.319999 9.52 0.319999H12.8C13.0667 0.319999 13.2933 0.413332 13.48 0.6C13.6933 0.786666 13.8 1.02667 13.8 1.32V8.44H20.88C21.1733 8.44 21.4133 8.53333 21.6 8.72C21.7867 8.90667 21.88 9.14667 21.88 9.44V12.36C21.88 12.6533 21.7867 12.8933 21.6 13.08C21.4133 13.2667 21.1733 13.36 20.88 13.36H13.8V20.68C13.8 20.9733 13.6933 21.2133 13.48 21.4C13.2933 21.5867 13.0667 21.68 12.8 21.68H9.52Z" fill="#FFF" fill-opacity="1"/>
</svg>