<svg width="40" height="40" viewBox="0 0 53 53" fill="none" xmlns="http://www.w3.org/2000/svg">
    <rect width="53" height="53" rx="26.5" fill="#2F2E41" />
        <g clip-path="url(#clip0_31_102)">
            <path d="M27 11C35.8365 11 43 18.1635 43 27C43 35.8365 35.8365 43 27 43C18.1635 43 11 35.8365 11 27C11 18.1635 18.1635 11 27 11ZM31.1533 17H22.8467C19.4419 17 17.1387 19.2032 17.006 22.5403L17 22.8468V31.1129C17 32.8468 17.5645 34.3387 18.6936 35.4275C19.7045 36.4008 21.0283 36.9224 22.536 36.992L22.8871 37H31.1129C32.8468 37 34.2983 36.4355 35.3468 35.4275C36.3628 34.4488 36.9224 33.084 36.9925 31.4968L37 31.1532V22.8468C37 21.1532 36.4355 19.7016 35.3871 18.6532C34.4087 17.6372 33.0437 17.0776 31.4892 17.0075L31.1533 17ZM22.8869 18.8548H31.1935C32.4031 18.8548 33.4112 19.2177 34.1369 19.9436C34.7653 20.6089 35.1565 21.5113 35.2173 22.5579L35.2257 22.8468V31.1532C35.2257 32.4032 34.7821 33.4113 34.0564 34.0968C33.3911 34.7252 32.4884 35.0824 31.4111 35.1376L31.1128 35.1452H22.8871C21.6775 35.1452 20.6693 34.7823 19.9436 34.0968C19.2783 33.4315 18.9179 32.5289 18.8624 31.4204L18.8548 31.1129V22.8467C18.8548 21.6369 19.2177 20.6289 19.9436 19.9031C20.5719 19.2747 21.5052 18.9175 22.5881 18.8623L22.8869 18.8548ZM27 21.7984C24.1773 21.7984 21.8387 24.0968 21.8387 26.9597C21.8366 27.6381 21.9686 28.3102 22.2273 28.9374C22.4859 29.5645 22.866 30.1343 23.3457 30.614C23.8254 31.0937 24.3952 31.4738 25.0224 31.7325C25.6495 31.9911 26.3216 32.1232 27 32.1211C29.8629 32.1211 32.1613 29.7823 32.1613 26.9597C32.1613 24.1371 29.8227 21.7984 27 21.7984ZM27 23.6532C28.8145 23.6532 30.3064 25.1452 30.3064 26.9597C30.3064 28.7741 28.8144 30.2661 27 30.2661C25.1855 30.2661 23.6936 28.7741 23.6936 26.9597C23.6936 25.1451 25.1856 23.6532 27 23.6532ZM32.3629 20.508C32.0528 20.508 31.7554 20.6312 31.5361 20.8505C31.3168 21.0698 31.1936 21.3672 31.1936 21.6773C31.1936 21.9875 31.3168 22.2849 31.5361 22.5042C31.7554 22.7235 32.0528 22.8467 32.3629 22.8467C32.6731 22.8467 32.9705 22.7235 33.1898 22.5042C33.4091 22.2849 33.5323 21.9875 33.5323 21.6773C33.5323 21.3672 33.4091 21.0698 33.1898 20.8505C32.9705 20.6312 32.6731 20.508 32.3629 20.508Z" fill="#9D98EA" />
        </g>
        <defs>
            <clipPath id="clip0_31_102">
                <rect width="32" height="32" fill="white" transform="translate(11 11)" />
            </clipPath>
        </defs>
</svg>